<?xml version="1.0" encoding="UTF-8" standalone="no"?>
<!-- Created with Inkscape (http://www.inkscape.org/) -->

<svg
   width="315.67056"
   height="364.27106"
   viewBox="0 0 83.521168 96.380053"
   version="1.1"
   id="svg5"
   inkscape:version="1.1 (c68e22c387, 2021-05-23)"
   sodipodi:docname="hexagonAndKey.svg"
   inkscape:export-filename="C:\Users\lang_m13\Desktop\code\js\experiments\hexaphone.ionic\public\assets\sprites\hexagonAndKey.png"
   inkscape:export-xdpi="89.980003"
   inkscape:export-ydpi="89.980003"
   xmlns:inkscape="http://www.inkscape.org/namespaces/inkscape"
   xmlns:sodipodi="http://sodipodi.sourceforge.net/DTD/sodipodi-0.dtd"
   xmlns="http://www.w3.org/2000/svg"
   xmlns:svg="http://www.w3.org/2000/svg">
  <sodipodi:namedview
     id="namedview7"
     pagecolor="#ffffff"
     bordercolor="#666666"
     borderopacity="1.0"
     inkscape:pageshadow="2"
     inkscape:pageopacity="0.0"
     inkscape:pagecheckerboard="true"
     inkscape:document-units="px"
     showgrid="false"
     units="px"
     fit-margin-top="0"
     fit-margin-left="0"
     fit-margin-right="0"
     fit-margin-bottom="0"
     inkscape:zoom="0.67081229"
     inkscape:cx="176.6515"
     inkscape:cy="183.35979"
     inkscape:current-layer="layer1" />
  <defs
     id="defs2" />
  <g
     inkscape:label="Layer 1"
     inkscape:groupmode="layer"
     id="layer1"
     transform="translate(-58.81711,-86.702409)">
    <path
       sodipodi:type="star"
       style="opacity:1;fill:#00ffff;stroke:#1fa5a5;stroke-width:5.91200009;stroke-linecap:round;stroke-linejoin:round;stroke-opacity:1;stroke-miterlimit:4;stroke-dasharray:none"
       id="path31"
       inkscape:flatsided="true"
       sodipodi:sides="6"
       sodipodi:cx="380.13617"
       sodipodi:cy="509.82968"
       sodipodi:r1="181.37964"
       sodipodi:r2="157.07938"
       sodipodi:arg1="-0.52359878"
       sodipodi:arg2="0"
       inkscape:rounded="0"
       inkscape:randomized="0"
       d="m 537.21554,419.13986 0,181.37964 -157.07937,90.68982 -157.07937,-90.68982 -1e-5,-181.37964 157.07938,-90.68982 z"
       transform="scale(0.26458333)"
       inkscape:transform-center-y="-1.585059e-06"
       inkscape:export-filename="C:\Users\lang_m13\Desktop\code\js\experiments\hexaphone.ionic\public\assets\sprites\hexagon.png"
       inkscape:export-xdpi="89.980003"
       inkscape:export-ydpi="89.980003" />
    <path
       style="fill:#008080;stroke-width:0.131966"
       d="m 96.690077,173.5519 c -1.56466,-0.33181 -3.90531,-1.33794 -4.84134,-2.08105 -0.73424,-0.58291 -1.72781,-1.89942 -2.22242,-2.94474 -1.29471,-2.73636 -0.6091,-5.25312 1.87619,-6.88709 1.36039,-0.89441 1.96722,-1.07583 3.59099,-1.07358 1.22382,0.002 1.48057,0.0439 2.15249,0.35354 0.8854,0.40805 2.24306,1.64513 2.64261,2.40791 0.215713,0.4118 0.287663,0.83254 0.327253,1.91351 l 0.0507,1.38564 -0.517793,0.79626 c -0.95104,1.4625 -2.17053,2.21521 -3.87806,2.39368 -0.42983,0.0449 -0.81065,0.12882 -0.84625,0.18644 -0.1044,0.16891 0.61304,0.76352 1.3266,1.09948 1.95235,0.91921 4.980143,0.77908 7.054413,-0.3265 1.4025,-0.74752 2.18358,-1.57569 2.90232,-3.07727 1.53857,-3.21435 1.73289,-4.4764 1.12183,-7.28588 -0.20386,-0.9373 -0.40454,-1.74557 -0.44596,-1.79617 -0.0414,-0.0506 -0.93639,0.0281 -1.98882,0.17499 -3.66679,0.51162 -7.423473,0.12182 -10.366463,-1.07564 -2.72948,-1.11059 -4.47562,-2.27763 -6.59471,-4.40763 -2.71845,-2.73244 -4.39772,-5.96098 -5.21855,-10.03312 -0.36039,-1.78785 -0.30062,-3.49274 0.20147,-5.74717 0.78934,-3.54418 1.33745,-4.65692 3.30505,-6.70967 1.75479,-1.83073 3.40021,-3.22758 6.03698,-5.12497 6.27385,-4.51458 6.30185,-4.53702 6.30185,-5.04898 0,-0.18616 -0.12037,-0.9619 -0.26748,-1.72386 -0.58099,-3.00912 -0.79347,-4.50972 -0.93428,-6.59805 -0.30333,-4.49877 0.22169,-7.91673 1.67235,-10.8872 1.483633,-3.037989 4.925153,-5.761975 6.586883,-5.213555 0.61026,0.201406 1.62646,1.239259 2.48555,2.538517 2.41426,3.651238 3.34125,7.404108 2.99143,12.110618 -0.24891,3.34884 -0.78224,5.34361 -2.25527,8.4352 -1.37405,2.88385 -2.22436,4.06795 -5.14691,7.16732 -1.00821,1.06922 -1.83312,1.99015 -1.83312,2.04651 0,0.37715 0.9287,3.38792 1.07385,3.48132 0.0989,0.0636 0.32829,0.0848 0.50974,0.047 2.90919,-0.60595 6.82167,0.009 8.99907,1.415 2.23018,1.43983 3.32228,2.65452 4.55924,5.07101 0.83681,1.63478 1.16028,2.68418 1.36186,4.41808 0.55114,4.74076 -1.04553,9.13293 -4.3436,11.94848 -1.33108,1.13634 -2.52866,1.9223 -3.88099,2.54708 l -1.10629,0.51111 0.24873,1.69446 c 0.34763,2.3682 0.38608,6.2943 0.0716,7.3092 -0.43199,1.39403 -1.82163,3.11156 -3.48221,4.30384 -0.99593,0.71508 -2.82661,1.59195 -4.10644,1.96694 -0.90715,0.26579 -1.5301,0.35059 -2.873773,0.39118 -0.94356,0.0285 -1.97872,-0.004 -2.30035,-0.0722 z m 6.919153,-15.96281 c 2.22823,-0.17343 2.96923,-0.3466 2.96923,-0.69392 0,-0.23121 -4.23932,-18.71964 -4.63158,-20.19915 -0.11512,-0.4342 -0.17194,-0.48967 -0.42301,-0.41295 -0.84799,0.25914 -1.829983,0.86632 -2.543203,1.57251 -1.48771,1.47305 -1.9077,2.55393 -1.92521,4.9548 -0.0128,1.75107 0.23442,2.90374 1.09487,5.10547 0.8803,2.2525 2.189423,3.96172 3.578383,4.67202 0.96211,0.49202 0.44937,1.31155 -0.69145,1.10519 -1.577753,-0.28541 -3.750693,-1.91583 -5.012093,-3.76073 -0.69537,-1.01704 -1.50551,-2.67081 -1.84242,-3.76104 -0.82297,-2.66311 -0.46766,-6.44505 0.79348,-8.44583 1.00821,-1.59951 2.6845,-3.13942 4.82462,-4.43212 0.617493,-0.37298 1.152743,-0.75641 1.189443,-0.85207 0.0774,-0.20165 -0.30735,-2.19299 -0.52996,-2.743 l -0.15103,-0.37316 -0.923373,0.6897 c -2.49788,1.86577 -6.67626,5.85966 -8.1455,7.78586 -1.64087,2.15122 -2.68523,4.59 -3.0097,7.02822 -0.26828,2.01606 0.31058,4.48523 1.47488,6.29113 2.05509,3.18758 5.39571,5.40356 9.34267,6.1974 2.079963,0.41833 2.417893,0.43846 4.560953,0.27167 z m 7.59851,-2.90246 c 1.44362,-1.43208 2.06069,-3.03053 2.19199,-5.67806 0.0876,-1.76756 -0.19601,-3.92667 -0.6874,-5.23216 -0.43769,-1.16284 -1.43047,-3.1033 -2.0725,-4.05087 -1.49027,-2.19945 -3.85142,-3.72361 -5.91818,-3.82027 l -0.58456,-0.0273 0.0232,0.59384 c 0.0186,0.47533 2.0936,9.58614 4.21562,18.50967 l 0.3377,1.42006 0.81293,-0.42679 c 0.44712,-0.23473 1.20365,-0.81437 1.68118,-1.28809 z M 100.9699,119.46777 c 1.20466,-0.74042 4.02425,-3.68085 5.15785,-5.3789 1.31715,-1.97297 2.43355,-4.84057 2.42759,-6.2355 -0.004,-1.03109 -0.25526,-2.42974 -0.54203,-3.02214 -0.58365,-1.20566 -2.36472,-1.66309 -3.84885,-0.98849 -1.65177,0.7508 -3.30179,3.33615 -3.97982,6.23582 -0.409783,1.75249 -0.16486,9.63558 0.29929,9.63303 0.0495,-2.6e-4 0.26823,-0.10999 0.48597,-0.24382 z"
       id="path852" />
  </g>
</svg>
